<?xml version="1.0" encoding="UTF-8"?>
<svg xmlns="http://www.w3.org/2000/svg" width="1180" height="680" viewBox="0 0 1180 680" role="img" aria-label="第 23 页图片 1">
  <defs>
    <linearGradient id="bg" x1="0" y1="0" x2="1" y2="1">
      <stop offset="0" stop-color="#ffffff"/>
      <stop offset="1" stop-color="#eef6ff"/>
    </linearGradient>
    <filter id="shadow" x="-20%" y="-20%" width="140%" height="140%">
      <feDropShadow dx="0" dy="8" stdDeviation="12" flood-color="#0f172a" flood-opacity="0.12"/>
    </filter>
  </defs>
  <rect width="1180" height="680" rx="28" fill="#f8fafc"/>
  <rect x="52" y="52" width="1076" height="576" rx="24" fill="url(#bg)" stroke="#dbe4f0" filter="url(#shadow)"/>
  <path d="M92 555 C230 480, 340 604, 500 520 S780 440, 1090 520" fill="none" stroke="hsl(92 70% 42%)" stroke-width="7" opacity="0.35"/>
  <path d="M92 185 C250 108, 370 244, 528 174 S814 104, 1088 188" fill="none" stroke="hsl(147 72% 46%)" stroke-width="7" opacity="0.30"/>
  <circle cx="170.0" cy="352.9" r="34" fill="none" stroke="hsl(92 70% 42%)" stroke-width="5" opacity="0.32"/>
<circle cx="305.0" cy="428.2" r="46" fill="none" stroke="hsl(147 72% 46%)" stroke-width="5" opacity="0.375"/>
<circle cx="440.0" cy="470.7" r="58" fill="none" stroke="hsl(92 70% 42%)" stroke-width="5" opacity="0.43"/>
<circle cx="575.0" cy="451.5" r="70" fill="none" stroke="hsl(147 72% 46%)" stroke-width="5" opacity="0.485"/>
<circle cx="710.0" cy="383.7" r="34" fill="none" stroke="hsl(92 70% 42%)" stroke-width="5" opacity="0.54"/>
<circle cx="845.0" cy="313.4" r="46" fill="none" stroke="hsl(147 72% 46%)" stroke-width="5" opacity="0.595"/>
<circle cx="980.0" cy="288.4" r="58" fill="none" stroke="hsl(92 70% 42%)" stroke-width="5" opacity="0.65"/>
  <path d="M210.0 299.9 C280.0 239.9, 290.0 369.8, 360.0 309.8" fill="none" stroke="#94a3b8" stroke-width="4" opacity="0.55"/>
    <circle cx="210.0" cy="299.9" r="28" fill="hsl(92 70% 42%)" opacity="0.86"/>
<path d="M360.0 309.8 C430.0 249.8, 440.0 353.9, 510.0 293.9" fill="none" stroke="#94a3b8" stroke-width="4" opacity="0.55"/>
    <circle cx="360.0" cy="309.8" r="28" fill="hsl(147 72% 46%)" opacity="0.86"/>
<path d="M510.0 293.9 C580.0 233.9, 590.0 319.8, 660.0 259.8" fill="none" stroke="#94a3b8" stroke-width="4" opacity="0.55"/>
    <circle cx="510.0" cy="293.9" r="28" fill="hsl(202 65% 52%)" opacity="0.86"/>
<path d="M660.0 259.8 C730.0 199.8, 740.0 283.3, 810.0 223.3" fill="none" stroke="#94a3b8" stroke-width="4" opacity="0.55"/>
    <circle cx="660.0" cy="259.8" r="28" fill="hsl(92 70% 42%)" opacity="0.86"/>
<path d="M810.0 223.3 C880.0 163.3, 890.0 261.8, 960.0 201.8" fill="none" stroke="#94a3b8" stroke-width="4" opacity="0.55"/>
    <circle cx="810.0" cy="223.3" r="28" fill="hsl(147 72% 46%)" opacity="0.86"/>

    <circle cx="960.0" cy="201.8" r="28" fill="hsl(202 65% 52%)" opacity="0.86"/>
</svg>
